<?xml version="1.0" standalone="no"?>
<!DOCTYPE svg PUBLIC "-//W3C//DTD SVG 20010904//EN"
 "http://www.w3.org/TR/2001/REC-SVG-20010904/DTD/svg10.dtd">
<svg version="1.0" xmlns="http://www.w3.org/2000/svg"
 width="1024.000000pt" height="1024.000000pt" viewBox="0 0 1024.000000 1024.000000"
 preserveAspectRatio="xMidYMid meet">

<g transform="translate(0.000000,1024.000000) scale(0.100000,-0.100000)"
fill="#000000" stroke="none">
<path d="M4455 8112 c11 -13 29 -28 40 -34 21 -11 18 -8 -30 32 -29 24 -29 24
-10 2z"/>
<path d="M5384 7688 l-19 -23 23 19 c21 18 27 26 19 26 -2 0 -12 -10 -23 -22z"/>
<path d="M3170 7356 c0 -2 8 -10 18 -17 15 -13 16 -12 3 4 -13 16 -21 21 -21
13z"/>
<path d="M4699 7183 c-13 -16 -12 -17 4 -4 9 7 17 15 17 17 0 8 -8 3 -21 -13z"/>
<path d="M4662 7133 c-23 -33 -72 -129 -72 -140 0 -4 18 25 39 64 21 40 44 80
51 88 7 8 10 15 7 15 -3 0 -14 -12 -25 -27z"/>
<path d="M5970 7115 c-24 -25 -42 -45 -39 -45 3 0 25 20 49 45 24 25 42 45 39
45 -3 0 -25 -20 -49 -45z"/>
<path d="M5899 7043 c-13 -16 -12 -17 4 -4 9 7 17 15 17 17 0 8 -8 3 -21 -13z"/>
<path d="M4581 6964 c0 -11 3 -14 6 -6 3 7 2 16 -1 19 -3 4 -6 -2 -5 -13z"/>
<path d="M5610 6182 c0 -4 16 -68 35 -142 26 -98 36 -163 40 -240 l4 -105 -13
105 c-8 58 -20 130 -28 160 -15 52 -15 50 -10 -95 5 -193 -11 -290 -72 -426
-53 -118 -116 -210 -206 -299 -127 -127 -214 -185 -445 -294 -186 -88 -297
-152 -398 -229 -156 -120 -289 -307 -363 -510 -18 -51 -33 -86 -34 -79 0 15
-142 17 -170 2 -15 -8 -18 -7 -14 3 6 18 -57 21 -68 4 -4 -7 -8 -7 -8 -2 0 6
-24 9 -60 7 -33 -2 -60 0 -60 5 0 12 -30 10 -50 -2 -45 -29 -64 -32 -82 -11
-36 44 11 -89 71 -204 206 -387 548 -685 936 -813 170 -57 273 -76 445 -83
125 -6 176 -3 260 10 291 49 493 125 710 269 148 99 381 333 427 430 18 37 36
67 41 67 14 0 127 217 166 318 20 52 49 161 66 242 26 128 30 170 30 306 0
148 -20 314 -56 459 -17 70 -132 348 -134 324 0 -4 7 -23 15 -42 8 -20 15 -50
15 -67 0 -17 4 -29 9 -26 5 4 7 -3 4 -14 -3 -11 -10 -20 -15 -20 -6 0 -8 -12
-5 -27 5 -30 -7 -57 -40 -90 -13 -12 -23 -27 -23 -34 0 -6 -7 -8 -16 -5 -8 3
-13 2 -10 -3 3 -5 0 -11 -7 -14 -7 -2 -19 -28 -26 -56 -7 -28 -17 -53 -22 -57
-5 -3 -9 -16 -9 -30 0 -13 -5 -24 -11 -24 -6 0 -9 -7 -6 -15 4 -9 -5 -21 -23
-32 -22 -13 -27 -20 -18 -30 8 -10 6 -13 -10 -13 -15 0 -20 -5 -16 -15 4 -9
-1 -18 -11 -21 -9 -4 -21 -17 -26 -31 -5 -13 -19 -28 -31 -33 -13 -5 -20 -9
-16 -9 4 -1 -4 -17 -17 -37 -14 -20 -25 -41 -25 -45 0 -5 -8 -9 -17 -9 -17 0
-97 -79 -107 -106 -3 -8 -12 -14 -20 -14 -9 0 -20 -9 -26 -20 -6 -12 -21 -20
-36 -20 -16 0 -28 -8 -34 -22 -8 -21 -9 -22 -10 -3 -2 17 -3 16 -9 -5 -5 -20
-14 -25 -38 -26 -34 0 -63 -19 -63 -40 0 -8 -7 -14 -15 -14 -8 0 -17 -11 -21
-25 -7 -29 -24 -34 -24 -7 -1 16 -1 16 -14 -1 -8 -10 -18 -17 -22 -16 -14 3
-68 -21 -77 -34 -4 -7 -6 -2 -4 13 2 14 2 19 0 12 -3 -7 -24 -18 -49 -24 -31
-9 -44 -17 -44 -30 0 -20 -26 -25 -33 -5 -4 9 -8 9 -15 -2 -8 -12 -13 -12 -25
-2 -12 9 -16 9 -19 -1 -4 -10 -8 -10 -21 1 -10 7 -17 9 -17 4 0 -15 -78 -35
-111 -28 -18 4 -29 3 -29 -4 0 -15 -27 -14 -32 1 -4 10 -11 10 -34 -1 -16 -7
-55 -15 -86 -16 -32 -2 -63 -7 -70 -11 -19 -12 -68 -15 -68 -5 0 21 -103 36
-127 18 -7 -5 -19 -7 -27 -4 -8 3 -17 3 -20 0 -3 -4 -18 -7 -32 -8 -20 0 -24
3 -20 18 4 15 2 16 -10 6 -7 -6 -11 -16 -7 -22 3 -5 2 -7 -4 -4 -15 10 -93
-88 -93 -116 0 -8 -8 -17 -19 -20 -14 -3 -29 -37 -59 -129 -33 -100 -44 -155
-57 -271 -19 -186 -19 -223 4 -327 11 -47 18 -86 16 -88 -4 -4 -60 136 -84
208 -42 130 -51 286 -27 467 9 69 21 114 36 140 12 21 31 60 41 87 21 52 143
202 206 252 85 68 205 142 318 196 66 32 129 64 140 70 11 7 54 31 97 53 193
102 422 320 526 500 61 105 70 128 102 265 28 120 32 147 27 240 -5 120 -48
300 -94 395 -23 49 -37 63 -82 88 -54 31 -181 72 -181 59z m-823 -2098 c-3 -3
-12 -4 -19 -1 -8 3 -5 6 6 6 11 1 17 -2 13 -5z"/>
<path d="M5950 6057 c0 -6 78 -57 85 -57 4 0 0 6 -7 14 -15 14 -78 49 -78 43z"/>
<path d="M6547 5123 c-10 -9 -8 -33 2 -33 5 0 11 9 14 20 5 20 -3 26 -16 13z"/>
<path d="M4874 4208 c-29 -31 -29 -31 -2 -12 15 10 29 25 32 32 8 18 2 15 -30
-20z"/>
<path d="M5040 4140 c-9 -6 -10 -10 -3 -10 6 0 15 5 18 10 8 12 4 12 -15 0z"/>
<path d="M4935 1819 c-55 -3 -122 -12 -148 -18 -63 -15 -128 -48 -107 -54 8
-3 31 -9 50 -15 19 -6 53 -17 75 -25 49 -19 301 -38 479 -38 403 2 596 25 596
71 0 10 6 20 13 23 6 2 -10 7 -38 11 -27 4 -79 14 -115 22 -44 11 -140 17
-305 20 -132 2 -276 6 -320 7 -44 1 -125 0 -180 -4z"/>
</g>
</svg>
